<?xml version="1.0" standalone="no"?><!DOCTYPE svg PUBLIC "-//W3C//DTD SVG 1.1//EN" "http://www.w3.org/Graphics/SVG/1.1/DTD/svg11.dtd"><svg data-v-0dd9719b="" version="1.0" xmlns="http://www.w3.org/2000/svg" xmlns:xlink="http://www.w3.org/1999/xlink" width="100%" height="100%" viewBox="0 0 340.000000 250.000000" preserveAspectRatio="xMidYMid meet" color-interpolation-filters="sRGB" style="margin: auto;"> <rect data-v-0dd9719b="" x="0" y="0" width="100%" height="100%" fill="#feffff" fill-opacity="1" class="background"></rect> <rect data-v-0dd9719b="" x="0" y="0" width="100%" height="100%" fill="url(#watermark)" fill-opacity="1" class="watermarklayer"></rect> <g data-v-0dd9719b="" fill="#333" class="iconlinesvg-g iconlinesvg" transform="translate(80.69679641723633,96.99390411376953)"><g class="tp-name"><g transform="translate(0, 4.744932926905513)"><g data-gra="path-name" fill="#333" transform="scale(1)"><path d="M4.63-44.57L10.72-44.57L10.72-5.36L33.37-5.36L33.37 0L4.63 0L4.63-44.57Z" transform="translate(-4.627875507442489, 45.7916102841678)"></path></g></g><g transform="translate(32, 0)"><g><g class="imagesvg"><g><rect fill="#333" fill-opacity="0" stroke-width="2" x="0" y="0" width="55.82679296346415" height="56.012193323364485" class="image-rect"></rect> <svg filter="url(#colors7276045792)" x="0" y="0" width="55.82679296346415" height="56.012193323364485" filtersec="colorsf6903085391" class="image-svg-svg primary" style="overflow: visible;"><svg xmlns="http://www.w3.org/2000/svg" viewBox="1.4253089427947998 1.254486322402954 97.14240264892578 97.46525573730469"><g fill="#333333"><path d="M70.15 82.26c6.9-.65 13.73-2.85 20.39-5.77.65-.33 1.3-.57 1.95-.9-7.88-6.25-18.44-8.37-28.68-10.48-1.14-.25-2.28-.49-3.41-.65-.73 7.15 6.58 15.36 9.75 17.8zM10.43 50.73c3 5.2 6.83 10.08 11.29 14.3-2.52-5.69-1.22-11.46-.57-13.89-1.79-1.05-3.5-2.28-5.12-3.58-3.98-3.09-8.37-6.33-11.38-10.73.33 1.38.73 2.85 1.22 4.23 1.31 3.25 2.78 6.5 4.56 9.67zM45.45 79.17c-6.33-7.48-6.1-16.33-5.93-19.91-2.6-.81-5.2-1.79-7.72-2.85-3-1.22-5.93-2.68-8.7-4.3-2.44 4.47.16 12.27 2.11 15.84 5.94 4.96 12.85 8.78 20.24 11.22z"></path><path d="M66.74 82.42h.25c-7.89-6.09-8.86-15.52-9.19-18.6-5.36-1.14-10.64-2.28-15.84-3.82-1.87 7.4 4.71 17.79 6.9 20.15 5.69 1.62 11.79 2.35 17.88 2.27z"></path><path d="M65.84 84.45c-2.93 0-5.77-.16-8.61-.57-1.14.33-2.35.73-3.5 1.3-6.98 3.09-13.89 9.26-16.82 11.53 3.33.98 6.75 1.63 10.16 1.87 8.53.65 17.14-.98 24.78-4.63 4.8-2.28 9.18-5.28 13.08-8.7 1.7-1.46 3.41-3 4.95-4.63l.98-.98c.81-.81 1.63-1.7 2.52-2.52-3.9 1.87-7.8 3.41-11.78 4.63-5.27 1.73-10.56 2.7-15.76 2.7zM13.19 57.8c-2.52-3.5-4.71-7.23-6.42-11.05-1.7-3.74-3.09-7.72-3.9-11.7-.25 1.3-.49 2.6-.65 3.9-.81 5.28-1.05 10.73-.49 16.33 3.25.4 6.25 1.05 8.7 1.7 1.06.34 2.03.57 2.76.82zM52.6 83.07a62.82 62.82 0 0 1-9.35-2.68c-3.09-1.14-6.1-2.52-8.93-4.06-1.05-.08-2.11 0-3.25.16-6.75.9-13.65 4.88-16.58 6.42 5.2 5.53 11.94 10.08 19.5 12.83 4.8-5.53 11.38-9.1 16.01-11.38.98-.48 1.87-.97 2.6-1.29zM30.91 74.3c-5.85-3.66-10.97-8.3-15.36-13.5-1.05-.57-2.2-1.05-3.41-1.46-3.33-1.14-7.07-1.55-10.08-1.95.9 5.77 2.85 11.7 6.25 17.31 1.3 2.2 2.85 4.3 4.55 6.33 5.45-3.58 11.62-5.28 15.6-6.25.98-.16 1.8-.33 2.45-.48zM29.85 17.75c-6.91.65-13.73 2.84-20.39 5.77-.65.33-1.3.57-1.95.9 7.88 6.25 18.44 8.37 28.68 10.48 1.14.25 2.28.49 3.41.65.73-7.16-6.58-15.37-9.75-17.8zM89.57 49.27c-3-5.2-6.83-10.08-11.29-14.3 2.52 5.69 1.22 11.46.57 13.89 1.79 1.05 3.5 2.28 5.12 3.58 3.98 3.09 8.37 6.33 11.38 10.73-.33-1.38-.73-2.85-1.22-4.23-1.31-3.25-2.77-6.5-4.56-9.67zM54.55 20.83c6.33 7.48 6.1 16.33 5.93 19.91 2.6.81 5.2 1.79 7.72 2.85 3 1.22 5.93 2.68 8.7 4.3 2.44-4.47-.16-12.27-2.11-15.84-5.94-4.96-12.85-8.78-20.24-11.22z"></path><path d="M58.05 40.01c1.87-7.4-4.71-17.79-6.9-20.15-5.77-1.55-11.79-2.36-17.88-2.28h-.25c7.88 6.1 8.85 15.52 9.18 18.61 5.36 1.05 10.65 2.27 15.85 3.82zM98.26 44.72c-3.25-.4-6.25-1.05-8.7-1.7-.98-.25-1.95-.57-2.76-.81 2.52 3.5 4.71 7.23 6.42 11.05 1.7 3.74 3.09 7.72 3.82 11.62.25-1.3.49-2.6.65-3.9.9-5.21 1.14-10.66.57-16.26z"></path><path d="M34.16 15.55c2.93 0 5.77.16 8.61.57 1.14-.33 2.35-.73 3.5-1.3 6.98-3.09 13.98-9.26 16.9-11.53-3.34-.98-6.75-1.63-10.17-1.87-8.53-.73-17.14.98-24.78 4.63-4.79 2.27-9.18 5.28-13.08 8.69-1.7 1.46-3.41 3.01-4.95 4.63l-.98.98c-.81.81-1.63 1.7-2.52 2.52 3.9-1.87 7.8-3.41 11.78-4.63 5.21-1.71 10.49-2.69 15.69-2.69zM47.4 16.93c3.17.65 6.33 1.55 9.35 2.68 3.09 1.14 6.1 2.52 8.93 4.06 1.05.08 2.11 0 3.25-.16 6.75-.9 13.65-4.88 16.58-6.42-5.2-5.53-11.94-10.08-19.5-12.83-4.8 5.52-11.38 9.09-16.01 11.37-.97.49-1.87.98-2.6 1.3zM69.09 25.71c5.85 3.65 10.97 8.28 15.28 13.48 1.05.57 2.2 1.05 3.41 1.46 3.33 1.14 7.07 1.55 10.08 1.95-.9-5.77-2.85-11.7-6.25-17.31-1.3-2.2-2.85-4.3-4.55-6.33-5.45 3.58-11.62 5.28-15.6 6.25-.9.17-1.72.34-2.37.5z"></path></g></svg></svg> <defs><filter id="colors7276045792"><feColorMatrix type="matrix" values="0 0 0 0 0.19921875  0 0 0 0 0.19921875  0 0 0 0 0.19921875  0 0 0 1 0" class="icon-fecolormatrix"></feColorMatrix></filter> <filter id="colorsf6903085391"><feColorMatrix type="matrix" values="0 0 0 0 0.99609375  0 0 0 0 0.99609375  0 0 0 0 0.99609375  0 0 0 1 0" class="icon-fecolormatrix"></feColorMatrix></filter> <filter id="colorsb7116717979"><feColorMatrix type="matrix" values="0 0 0 0 0  0 0 0 0 0  0 0 0 0 0  0 0 0 1 0" class="icon-fecolormatrix"></feColorMatrix></filter></defs></g></g></g></g><g transform="translate(91, 4.744932926905513)"><g data-gra="path-name" fill="#333" transform="scale(1)"><path d="M38.00-18.76L24.36-18.76L24.36-23.87L43.84-23.87L43.84 0L39.95 0L38.48-5.60Q33.37 0.49 23.87 0.73L23.87 0.73Q14.86 0.73 9.99-3.90L9.99-3.90Q2.68-10.72 2.92-22.65L2.92-22.65Q4.63-44.82 24.11-45.79L24.11-45.79Q40.68-44.82 43.11-31.18L43.11-31.18L37.27-31.18Q34.83-40.43 23.87-40.68L23.87-40.68Q9.99-39.70 9.26-22.41L9.26-22.41Q9.26-3.90 24.11-3.90L24.11-3.90Q29.47-3.90 33.37-6.82L33.37-6.82Q38.24-10.72 38.00-18.76L38.00-18.76Z" transform="translate(-2.9228687415426258, 45.7916102841678)"></path></g></g><g transform="translate(135, 4.744932926905513)"><g data-gra="path-name" fill="#333" transform="scale(1)"><path d="M39.95-22.17L39.95-22.17Q38.97-39.70 24.36-40.68L24.36-40.68Q9.50-39.95 8.77-22.17L8.77-22.17Q9.50-4.87 24.36-4.14L24.36-4.14Q38.97-5.12 39.95-22.17ZM46.04-22.17L46.04-22.17Q44.57 0 24.36 0.73L24.36 0.73Q3.90 0 2.44-22.17L2.44-22.17Q3.65-45.30 24.36-45.79L24.36-45.79Q44.57-45.06 46.04-22.17Z" transform="translate(-2.4357239512855213, 45.7916102841678)"></path></g></g></g> <!----></g><defs v-gra="od"></defs></svg>